<svg width="20" height="20" viewBox="0 0 20 20" fill="none" xmlns="http://www.w3.org/2000/svg">
<path d="M9.275 13.525C10.4417 13.525 11.4333 13.15 12.25 12.4C13.0667 11.65 13.475 10.7417 13.475 9.675C13.475 8.725 13.1708 7.92083 12.5625 7.2625C11.9542 6.60417 11.2167 6.275 10.35 6.275C9.56667 6.275 8.90417 6.525 8.3625 7.025C7.82083 7.525 7.55 8.14167 7.55 8.875C7.55 9.19167 7.60417 9.50417 7.7125 9.8125C7.82083 10.1208 8.00833 10.3917 8.275 10.625C8.54167 10.8583 8.80833 10.9542 9.075 10.9125C9.34167 10.8708 9.55833 10.7583 9.725 10.575C9.89167 10.3917 9.9875 10.1708 10.0125 9.9125C10.0375 9.65417 9.93333 9.41667 9.7 9.2C9.66667 9.16667 9.63333 9.125 9.6 9.075C9.56667 9.025 9.55 8.96667 9.55 8.9C9.55 8.71667 9.625 8.57083 9.775 8.4625C9.925 8.35417 10.1167 8.3 10.35 8.3C10.6833 8.3 10.9583 8.4375 11.175 8.7125C11.3917 8.9875 11.5 9.31667 11.5 9.7C11.5 10.2167 11.2875 10.6542 10.8625 11.0125C10.4375 11.3708 9.91667 11.55 9.3 11.55C8.51667 11.55 7.85417 11.2333 7.3125 10.6C6.77083 9.96667 6.5 9.19167 6.5 8.275C6.5 7.95833 6.5375 7.65 6.6125 7.35C6.6875 7.05 6.8 6.76667 6.95 6.5C7.08333 6.25 7.15 5.9875 7.15 5.7125C7.15 5.4375 7.05 5.2 6.85 5C6.65 4.8 6.40833 4.70417 6.125 4.7125C5.84167 4.72083 5.625 4.84167 5.475 5.075C5.14167 5.54167 4.89167 6.04167 4.725 6.575C4.55833 7.10833 4.475 7.66667 4.475 8.25C4.475 9.71667 4.94167 10.9625 5.875 11.9875C6.80833 13.0125 7.94167 13.525 9.275 13.525ZM4 20C3.71667 20 3.47917 19.9042 3.2875 19.7125C3.09583 19.5208 3 19.2833 3 19V15.7C2.05 14.8333 1.3125 13.8208 0.7875 12.6625C0.2625 11.5042 0 10.2833 0 9C0 6.5 0.875 4.375 2.625 2.625C4.375 0.875 6.5 0 9 0C11.0833 0 12.9292 0.6125 14.5375 1.8375C16.1458 3.0625 17.1917 4.65833 17.675 6.625L18.975 11.75C19.0583 12.0667 19 12.3542 18.8 12.6125C18.6 12.8708 18.3333 13 18 13H16V16C16 16.55 15.8042 17.0208 15.4125 17.4125C15.0208 17.8042 14.55 18 14 18H12V19C12 19.2833 11.9042 19.5208 11.7125 19.7125C11.5208 19.9042 11.2833 20 11 20H4Z" fill="white"/>
</svg>

