<svg xmlns="http://www.w3.org/2000/svg" version="1.1" width="24" height="24" x="0" y="0" viewBox="0 0 24 24" style="enable-background:new 0 0 512 512" xml:space="preserve" fill-rule="evenodd">
    <g>
        <path d="M17.984 4.45a1.746 1.746 0 0 1 0 2.098.751.751 0 0 0 1.199.901c.408-.543.65-1.218.65-1.95 0-.731-.242-1.406-.65-1.949a.75.75 0 1 0-1.199.9zM4.817 3.55a3.234 3.234 0 0 0-.65 1.949c0 .732.242 1.407.65 1.95a.75.75 0 0 0 1.199-.901 1.746 1.746 0 0 1 0-2.098.75.75 0 1 0-1.199-.9zM20.567 3.45c.429.572.683 1.281.683 2.05s-.254 1.478-.683 2.05a.75.75 0 1 0 1.199.9c.618-.822.984-1.843.984-2.95s-.366-2.128-.984-2.95a.75.75 0 1 0-1.199.9zM2.234 2.55c-.618.822-.984 1.843-.984 2.95s.366 2.128.984 2.95a.75.75 0 1 0 1.199-.9c-.429-.572-.683-1.281-.683-2.05s.254-1.478.683-2.05a.75.75 0 1 0-1.199-.9zM12 1.25c-2.635 0-4.75 2.036-4.75 4.519v6.462c0 2.483 2.115 4.519 4.75 4.519s4.75-2.036 4.75-4.519V5.769c0-2.483-2.115-4.519-4.75-4.519z" fill="#ffffff" opacity="1"></path>
        <path d="M12 17.75c-3.144 0-5.75-2.089-5.75-4.75v-2a.75.75 0 0 0-1.5 0v2c0 3.415 3.214 6.25 7.25 6.25s7.25-2.835 7.25-6.25v-2a.75.75 0 0 0-1.5 0v2c0 2.661-2.606 4.75-5.75 4.75z" fill="#ffffff" opacity="1"></path>
        <path d="M11.25 18.5V22a.75.75 0 0 0 1.5 0v-3.5a.75.75 0 0 0-1.5 0z" fill="#ffffff" opacity="1"></path>
        <path d="M15 21.25H9a.75.75 0 0 0 0 1.5h6a.75.75 0 0 0 0-1.5z" fill="#ffffff" opacity="1"></path>
    </g>
</svg>