<svg width="24" height="24" viewBox="0 0 24 24" fill="none" xmlns="http://www.w3.org/2000/svg">
    <mask id="mask0_12_19" style="mask-type:alpha" maskUnits="userSpaceOnUse" x="0" y="0" width="24"
        height="24">
        <rect width="24" height="24" fill="#D9D9D9" />
    </mask>
    <g mask="url(#mask0_12_19)">
        <path
            d="M9.28275 18.25C8.59892 18.25 8.01833 18.0113 7.541 17.534C7.06367 17.0567 6.825 16.4761 6.825 15.7923V4.20775C6.825 3.52392 7.06367 2.94333 7.541 2.466C8.01833 1.98867 8.59892 1.75 9.28275 1.75H17.8673C18.5511 1.75 19.1317 1.98867 19.609 2.466C20.0863 2.94333 20.325 3.52392 20.325 4.20775V15.7923C20.325 16.4761 20.0863 17.0567 19.609 17.534C19.1317 18.0113 18.5511 18.25 17.8673 18.25H9.28275ZM9.28275 16.1H17.8673C17.9443 16.1 18.0148 16.0679 18.0788 16.0038C18.1429 15.9398 18.175 15.8693 18.175 15.7923V4.20775C18.175 4.13075 18.1429 4.06025 18.0788 3.99625C18.0148 3.93208 17.9443 3.9 17.8673 3.9H9.28275C9.20575 3.9 9.13525 3.93208 9.07125 3.99625C9.00708 4.06025 8.975 4.13075 8.975 4.20775V15.7923C8.975 15.8693 9.00708 15.9398 9.07125 16.0038C9.13525 16.0679 9.20575 16.1 9.28275 16.1ZM5.13275 22.4C4.44892 22.4 3.86833 22.1613 3.391 21.684C2.91367 21.2067 2.675 20.6261 2.675 19.9423V6.20775H4.825V19.9423C4.825 20.0193 4.85708 20.0898 4.92125 20.1538C4.98525 20.2179 5.05575 20.25 5.13275 20.25H15.8673V22.4H5.13275Z"
            fill="white" />
    </g>
</svg>
    