<svg width="25" height="25" viewBox="0 0 25 25" fill="none" xmlns="http://www.w3.org/2000/svg">
    <path
        d="M5.95454 22.1794C5.27071 22.1794 4.69013 21.9407 4.21279 21.4634C3.73546 20.986 3.49679 20.4054 3.49679 19.7216V6.0371C3.49679 5.35327 3.73546 4.77269 4.21279 4.29535C4.69013 3.81802 5.27071 3.57935 5.95454 3.57935H12.5065C12.8649 3.57935 13.1336 3.69202 13.3128 3.91735C13.492 4.14252 13.5815 4.38894 13.5815 4.6566C13.5815 4.92427 13.4909 5.17002 13.3095 5.39385C13.128 5.61752 12.8635 5.72935 12.516 5.72935H5.95454C5.87754 5.72935 5.80704 5.76143 5.74304 5.8256C5.67888 5.8896 5.64679 5.9601 5.64679 6.0371V19.7216C5.64679 19.7986 5.67888 19.8691 5.74304 19.9331C5.80704 19.9973 5.87754 20.0294 5.95454 20.0294H19.639C19.716 20.0294 19.7865 19.9973 19.8505 19.9331C19.9147 19.8691 19.9468 19.7986 19.9468 19.7216V13.1216C19.9468 12.7633 20.0594 12.4945 20.2845 12.3154C20.5099 12.1362 20.7564 12.0466 21.024 12.0466C21.2917 12.0466 21.5375 12.1362 21.7613 12.3154C21.985 12.4945 22.0968 12.7633 22.0968 13.1216V19.7216C22.0968 20.4054 21.8581 20.986 21.3808 21.4634C20.9035 21.9407 20.3229 22.1794 19.639 22.1794H5.95454ZM9.97179 14.4754V12.8199C9.97179 12.4884 10.036 12.1704 10.1643 11.8659C10.2928 11.5614 10.471 11.296 10.6988 11.0699L18.9315 2.8371C19.1532 2.61527 19.3919 2.45627 19.6475 2.3601C19.903 2.26394 20.1618 2.21585 20.4238 2.21585C20.6943 2.21585 20.9641 2.2681 21.2333 2.3726C21.5025 2.4771 21.748 2.63702 21.9698 2.85235L22.8005 3.67935C23.012 3.90119 23.1691 4.1446 23.2718 4.4096C23.3743 4.6746 23.4255 4.94352 23.4255 5.21635C23.4255 5.48919 23.3766 5.75427 23.2788 6.0116C23.1808 6.26894 23.0195 6.50685 22.7948 6.72535L14.5583 14.9871C14.3275 15.2178 14.0605 15.395 13.7575 15.5189C13.4547 15.6425 13.1383 15.7044 12.8083 15.7044H11.2008C10.8596 15.7044 10.5695 15.5848 10.3305 15.3456C10.0914 15.1066 9.97179 14.8165 9.97179 14.4754ZM12.1218 13.5544H12.918L18.8505 7.6466L18.4525 7.2236L18.0103 6.80635L12.1218 12.6949V13.5544Z"
        fill="white" />
</svg>