<svg width="20" height="20" viewBox="0 0 20 20" fill="none" xmlns="http://www.w3.org/2000/svg">
<path d="M2 20C1.45 20 0.979167 19.8042 0.5875 19.4125C0.195833 19.0208 0 18.55 0 18V9.3C0 8.9 0.108333 8.53333 0.325 8.2C0.541667 7.86667 0.841667 7.61667 1.225 7.45L5.6 5.6C5.93333 5.46667 6.25 5.49167 6.55 5.675C6.85 5.85833 7 6.13333 7 6.5V7L10.625 5.55C10.9583 5.41667 11.2708 5.45 11.5625 5.65C11.8542 5.85 12 6.125 12 6.475V8H20V18C20 18.55 19.8042 19.0208 19.4125 19.4125C19.0208 19.8042 18.55 20 18 20H2ZM9 16H11V12H9V16ZM5 16H7V12H5V16ZM13 16H15V12H13V16ZM19.8 6.5H15.175L15.9 0.875C15.9333 0.625 16.0458 0.416667 16.2375 0.25C16.4292 0.0833333 16.65 0 16.9 0H18.125C18.375 0 18.5917 0.0833333 18.775 0.25C18.9583 0.416667 19.0667 0.625 19.1 0.875L19.8 6.5Z" fill="white"/>
</svg>
