<svg width="20" height="19" viewBox="0 0 20 19" fill="none" xmlns="http://www.w3.org/2000/svg">
<path d="M2 16.5C1.45 16.5 0.979167 16.3042 0.5875 15.9125C0.195833 15.5208 0 15.05 0 14.5V2.5C0 1.95 0.195833 1.47917 0.5875 1.0875C0.979167 0.695833 1.45 0.5 2 0.5H18C18.55 0.5 19.0208 0.695833 19.4125 1.0875C19.8042 1.47917 20 1.95 20 2.5V7.675C20 7.90833 19.9208 8.10417 19.7625 8.2625C19.6042 8.42083 19.4083 8.5 19.175 8.5C18.675 8.5 18.1833 8.54583 17.7 8.6375C17.2167 8.72917 16.8 8.95 16.45 9.3L12.95 12.825L12.2 12.1C11.6167 11.5167 10.9167 11.2292 10.1 11.2375C9.28333 11.2458 8.58333 11.5417 8 12.125C7.46667 12.6583 7.17083 13.2375 7.1125 13.8625C7.05417 14.4875 7.18333 15.0917 7.5 15.675C7.6 15.8583 7.60417 16.0417 7.5125 16.225C7.42083 16.4083 7.28333 16.5 7.1 16.5H2ZM2 4.5V8.5H18V4.5H2ZM12.95 15.65L17.875 10.725C18.075 10.525 18.3125 10.4292 18.5875 10.4375C18.8625 10.4458 19.1 10.55 19.3 10.75C19.4833 10.95 19.5792 11.1833 19.5875 11.45C19.5958 11.7167 19.5 11.95 19.3 12.15L13.65 17.8C13.55 17.9 13.4417 17.975 13.325 18.025C13.2083 18.075 13.0833 18.1 12.95 18.1C12.8167 18.1 12.6917 18.075 12.575 18.025C12.4583 17.975 12.35 17.9 12.25 17.8L9.4 14.95C9.21667 14.7667 9.12083 14.5375 9.1125 14.2625C9.10417 13.9875 9.2 13.75 9.4 13.55C9.58333 13.3667 9.8125 13.275 10.0875 13.275C10.3625 13.275 10.6 13.3667 10.8 13.55L12.95 15.65Z" fill="white"/>
</svg>
