<svg width="19" height="18" viewBox="0 0 19 18" fill="none" xmlns="http://www.w3.org/2000/svg">
<path d="M1.86747 16.0001V5.10008L0.368934 1.75008C0.256141 1.50008 0.248084 1.24591 0.344764 0.987577C0.441444 0.729243 0.610633 0.541743 0.852332 0.425077C1.09403 0.30841 1.33976 0.29591 1.58952 0.387577C1.83927 0.479243 2.02055 0.650077 2.13334 0.900077L3.99442 5.05008H15.2093L17.0703 0.900077C17.1831 0.650077 17.3644 0.475077 17.6142 0.375077C17.8639 0.275077 18.1097 0.291743 18.3514 0.425077C18.5931 0.541743 18.7622 0.729243 18.8589 0.987577C18.9556 1.24591 18.9475 1.50008 18.8348 1.75008L17.3362 5.10008V16.0001C17.3362 16.5501 17.1469 17.0209 16.7682 17.4126C16.3896 17.8042 15.9344 18.0001 15.4026 18.0001H3.80106C3.26932 18.0001 2.81412 17.8042 2.43546 17.4126C2.0568 17.0209 1.86747 16.5501 1.86747 16.0001ZM7.66825 11.0001H11.5354C11.8094 11.0001 12.039 10.9042 12.2243 10.7126C12.4096 10.5209 12.5022 10.2834 12.5022 10.0001C12.5022 9.71674 12.4096 9.47924 12.2243 9.28758C12.039 9.09591 11.8094 9.00008 11.5354 9.00008H7.66825C7.39432 9.00008 7.16471 9.09591 6.97941 9.28758C6.7941 9.47924 6.70145 9.71674 6.70145 10.0001C6.70145 10.2834 6.7941 10.5209 6.97941 10.7126C7.16471 10.9042 7.39432 11.0001 7.66825 11.0001Z" fill="white"/>
</svg>
