<svg width="73" height="32" viewBox="0 0 73 32" fill="none" xmlns="http://www.w3.org/2000/svg">
<path fill-rule="evenodd" clip-rule="evenodd" d="M66.5935 24.386C65.1447 26.7553 61.6723 26.0627 60.9357 23.678C59.9433 20.468 62.1649 15.7973 64.5114 14.8C65.0487 14.5687 65.6294 14.45 66.6159 14.748C67.1808 14.9113 67.4241 15.4927 67.5057 15.4927C67.6596 15.4927 67.7043 14.748 68.5869 14.5987C69.603 14.4273 70.4855 14.9633 70.5737 16.2147C70.7059 18.2333 68.919 19.8493 69.0801 22.1667C69.1314 22.8967 69.4326 23.388 69.8746 23.4773C71.2136 23.7453 71.353 21.868 72.5605 21.8613C73.4055 24.6533 67.9319 27.7973 66.5935 24.386ZM66.6961 19.544C65.563 19.2313 66.4239 17.936 66.1003 16.9147C63.8866 15.85 63.0994 21.8613 64.2095 22.874C65.6741 24.2 66.7553 20.8773 66.6961 19.544ZM57.3403 11.1727C57.2877 9.86866 58.0012 9.27333 59.0245 9.04933C60.2741 8.774 61.1573 9.22066 61.3125 10.36C61.6499 12.8933 57.4495 13.966 57.3403 11.1727ZM58.6043 14.8153C59.3692 14.8153 60.1123 15.2767 60.3543 16.282C60.4286 16.5793 60.4655 16.9233 60.4365 17.3253C60.2813 19.634 59.6112 21.66 59.0462 24.5873C58.818 25.756 58.6484 27.3513 58.4208 28.4607H73.0004L72.206 28.9747H58.2959C58.2294 29.258 58.1564 29.2727 58.0749 29.5333H71.4115L70.6171 30.0693H57.8763C57.7586 30.3673 57.6264 30.3373 57.4725 30.5687H69.8226L69.0282 31.112H56.9792C56.9496 31.134 56.9279 31.156 56.8983 31.18C55.5298 32.208 51.7857 31.642 51.3595 28.9007C50.8288 25.474 53.7133 29.7267 54.7202 27.8433C55.8902 25.654 55.8684 22.3987 56.463 19.24C56.0223 19.33 55.2358 19.9407 54.4775 20.0447C54.2118 23.33 52.6525 26.562 49.115 25.8987C46.8204 25.474 45.7017 22.6067 46.3337 19.642C45.9148 19.754 45.5906 19.962 45.1414 20.0447C45.5833 24.208 40.8462 27.9327 37.9841 24.8927C35.0707 21.7947 37.6908 14.4587 41.7577 14.4953C43.7511 14.5173 44.833 16.1413 45.1414 18.234C47.6576 18.0553 47.7681 15.1127 50.2027 14.5993C52.542 14.1007 54.2861 15.8427 54.4768 18.234C55.3811 18.1373 56.0579 17.8173 56.5656 17.326C56.5064 16.7227 56.6326 16.2227 56.8674 15.828C57.2508 15.1727 57.9348 14.822 58.6043 14.8153ZM41.3625 16.8193C39.5743 17.46 39.1192 21.3173 40.5674 22.6733C42.4437 23.202 42.9297 21.518 43.2526 20.1493C41.5828 20.1327 41.0159 18.2567 41.3625 16.8193ZM50.7045 16.8193C48.9091 17.46 48.4612 21.3173 49.9101 22.6733C51.7857 23.202 52.2638 21.518 52.5867 20.1493C50.9176 20.1327 50.3507 18.2567 50.7045 16.8193ZM30.7038 24.4233C28.7098 24.878 27.3636 23.47 27.3636 23.47C27.3636 23.47 27.1281 25.5107 27.1058 26.2693C27.0834 27.0307 27.1939 29.5913 26.7822 30.5073C26.3771 31.4247 25.8036 32.6833 23.8767 31.6847C21.957 30.694 23.3032 25.8453 23.803 23.686C24.3107 21.5173 25.4143 16.3873 25.2893 14.792C25.1565 13.206 25.0611 11.8873 25.1493 11.4707C25.1493 11.4707 24.8185 9.45933 26.6204 9.43733C28.4303 9.42266 28.6651 11.0387 28.7828 12.5507C28.7828 12.5507 30.9682 8.648 34.0355 9.04266C37.1028 9.43733 37.4553 13.4667 36.7714 16.952C36.0881 20.438 34.0572 23.656 30.7038 24.4233ZM31.0484 13.5487C29.2024 13.996 28.4073 19.492 28.4073 19.492C29.3418 22.71 31.0629 21.1393 31.4082 20.758C31.7541 20.3707 32.6295 18.7027 32.7689 17.154C32.9017 15.612 32.8951 13.1093 31.0484 13.5487ZM20.6838 23.44C21.7209 23.2907 21.9044 21.988 22.8534 21.7873C23.5669 22.554 22.7212 23.6413 22.0734 24.3567C21.419 25.0867 20.543 25.7647 19.6611 25.9513C17.5349 26.3973 16.3656 25.3027 15.9828 23.806C14.9898 24.796 13.6731 25.9947 11.5838 26.078C11.5614 26.078 11.5397 26.078 11.5173 26.078C10.252 25.9947 9.14845 25.518 8.50854 24.788C5.96341 21.9053 7.86141 16.26 10.9143 14.7407C13.0181 13.6987 15.5192 14.7633 15.3206 17.2587C15.1371 19.582 12.6353 21.1093 10.4361 21.3627C10.7012 22.3007 11.1056 23.0233 11.8856 23.3213C13.5113 23.9393 15.6145 22.5247 15.9828 21.6673C16.1222 21.34 16.1591 20.8647 16.2255 20.4993C16.4537 19.2393 16.6891 18.1673 16.9463 16.9467C14.9898 17.222 15.1226 14.3093 17.2482 14.868C17.4612 12.4627 17.0127 8.16466 19.9623 9.17C21.4559 9.67666 20.9626 12.4627 20.6239 14.0113C21.3006 13.6247 22.5219 12.842 22.9191 13.8853C23.5959 15.6947 21.3815 16.798 19.9617 16.9473C19.7847 17.8927 19.5861 18.7493 19.4171 19.8887C19.1975 21.4367 18.8081 23.7153 20.6838 23.44ZM12.5479 16.886C11.0688 15.7533 10.3263 18.5467 10.3118 20.0727C11.7021 19.7013 12.8274 18.7553 12.5479 16.886ZM5.91277 14.0853C5.0519 16.468 6.08902 24.036 4.08119 25.57C3.47023 26.0313 1.8228 26.3533 0.97639 25.734C0.292426 25.22 -0.112033 23.746 0.0273902 22.986C0.844201 17.7353 2.31538 10.86 2.49229 4.95333C1.89645 5.03533 1.26379 6.182 0.343724 5.92933C-0.310646 5.028 0.602183 4.12666 1.13817 3.58333C2.91188 1.78066 5.95683 0.253331 8.69335 -0.052002C9.32536 -0.052002 9.96591 -0.052002 10.5986 -0.052002C14.5853 0.238665 17.9696 2.324 17.7559 6.65133C17.506 11.798 11.4739 14.4053 5.91277 14.0853ZM7.73711 3.18066C7.64833 3.19533 7.64833 3.30733 7.65556 3.41866C7.41289 6.346 6.6842 8.78866 6.30934 11.582C9.04585 11.4253 11.3411 10.584 12.2684 8.67C13.8132 5.50466 11.1431 3.01 7.73711 3.18066Z" fill="#C52031"/>
</svg>
