<svg width="20" height="22" viewBox="0 0 20 22" fill="none" xmlns="http://www.w3.org/2000/svg">
<path d="M4 22C2.9 22 1.95833 21.6083 1.175 20.825C0.391667 20.0417 0 19.1 0 18V15H5.45L7.475 17.675C7.84167 18.1583 8.325 18.425 8.925 18.475C9.525 18.525 10.0417 18.3333 10.475 17.9L15.025 13.35L16.25 12.6C16.5833 12.3833 16.95 12.2917 17.35 12.325C17.75 12.3583 18.1167 12.4917 18.45 12.725C18.8667 13.0417 19.0917 13.4583 19.125 13.975C19.1583 14.4917 18.9917 14.9333 18.625 15.3L12.8 21.125C12.5167 21.4083 12.1917 21.625 11.825 21.775C11.4583 21.925 11.075 22 10.675 22H4ZM0 13V4C0 3.71667 0.0958333 3.47917 0.2875 3.2875C0.479167 3.09583 0.716667 3 1 3C1.28333 3 1.52083 3.09583 1.7125 3.2875C1.90417 3.47917 2 3.71667 2 4V11H4V2C4 1.71667 4.09583 1.47917 4.2875 1.2875C4.47917 1.09583 4.71667 1 5 1C5.28333 1 5.52083 1.09583 5.7125 1.2875C5.90417 1.47917 6 1.71667 6 2V11H8V1C8 0.716667 8.09583 0.479167 8.2875 0.2875C8.47917 0.0958333 8.71667 0 9 0C9.28333 0 9.52083 0.0958333 9.7125 0.2875C9.90417 0.479167 10 0.716667 10 1V11H12V3C12 2.71667 12.0958 2.47917 12.2875 2.2875C12.4792 2.09583 12.7167 2 13 2C13.2833 2 13.5208 2.09583 13.7125 2.2875C13.9042 2.47917 14 2.71667 14 3V11.575L9.05 16.475L7.05 13.8C6.86667 13.55 6.63333 13.3542 6.35 13.2125C6.06667 13.0708 5.76667 13 5.45 13H0Z" fill="white"/>
</svg>
