<svg width="19" height="19" viewBox="0 0 19 19" fill="none" xmlns="http://www.w3.org/2000/svg">
    <path d="M9.97491 10.95L3.07491 17.8C2.89158 17.9834 2.66241 18.0792 2.38741 18.0875C2.11241 18.0959 1.87491 18 1.67491 17.8C1.49158 17.6167 1.39991 17.3834 1.39991 17.1C1.39991 16.8167 1.49158 16.5834 1.67491 16.4L11.2249 6.85002C10.9249 6.15002 10.8832 5.35835 11.0999 4.47502C11.3166 3.59169 11.7916 2.80002 12.5249 2.10002C13.4082 1.21669 14.3916 0.700021 15.4749 0.550021C16.5582 0.400021 17.4416 0.666688 18.1249 1.35002C18.8082 2.03335 19.0749 2.91669 18.9249 4.00002C18.7749 5.08335 18.2582 6.06669 17.3749 6.95002C16.6749 7.68335 15.8832 8.15835 14.9999 8.37502C14.1166 8.59169 13.3249 8.55002 12.6249 8.25002L11.3749 9.50002L18.2749 16.4C18.4582 16.5834 18.5541 16.8125 18.5624 17.0875C18.5707 17.3625 18.4749 17.6 18.2749 17.8C18.0916 17.9834 17.8582 18.075 17.5749 18.075C17.2916 18.075 17.0582 17.9834 16.8749 17.8L9.97491 10.95ZM5.32491 9.95002L2.32491 6.95002C1.62491 6.25002 1.18324 5.36669 0.999909 4.30002C0.816575 3.23335 1.02491 2.28335 1.62491 1.45002C1.80824 1.20002 2.05408 1.05835 2.36241 1.02502C2.67074 0.991688 2.93324 1.09169 3.14991 1.32502L8.52491 6.75002L5.32491 9.95002Z" fill="white"/>
</svg>