<svg width="17" height="13" viewBox="0 0 17 13" fill="none" xmlns="http://www.w3.org/2000/svg">
<path d="M2.30322 12.126C1.88656 12.126 1.53239 11.9801 1.24072 11.6885C0.949056 11.3968 0.803223 11.0426 0.803223 10.626V1.62598C0.803223 1.20931 0.949056 0.855143 1.24072 0.563477C1.53239 0.27181 1.88656 0.125977 2.30322 0.125977H15.3032C15.7199 0.125977 16.0741 0.27181 16.3657 0.563477C16.6574 0.855143 16.8032 1.20931 16.8032 1.62598V10.626C16.8032 11.0426 16.6574 11.3968 16.3657 11.6885C16.0741 11.9801 15.7199 12.126 15.3032 12.126H2.30322ZM2.80322 5.12598H7.80322V2.12598H2.80322V5.12598ZM9.80322 5.12598H14.8032V2.12598H9.80322V5.12598ZM7.80322 10.126V7.12598H2.80322V10.126H7.80322ZM9.80322 10.126H14.8032V7.12598H9.80322V10.126Z" fill="white"/>
</svg>
