<svg width="25" height="25" viewBox="0 0 25 25" fill="none" xmlns="http://www.w3.org/2000/svg">
    <mask id="mask0_4_67" maskUnits="userSpaceOnUse" x="0" y="0" width="25" height="25">
        <rect x="0.796791" y="0.879353" width="24" height="24" fill="#D9D9D9" />
    </mask>
    <g mask="url(#mask0_4_67)">
        <path
            d="M6.95454 21.1794C6.26604 21.1794 5.68429 20.9419 5.20929 20.4669C4.73429 19.9919 4.49679 19.4101 4.49679 18.7216V17.0851C4.49679 16.7889 4.60196 16.5358 4.81229 16.3256C5.02246 16.1153 5.27563 16.0101 5.57179 16.0101C5.86796 16.0101 6.12113 16.1153 6.33129 16.3256C6.54163 16.5358 6.64679 16.7889 6.64679 17.0851V18.7216C6.64679 18.7986 6.67888 18.8691 6.74304 18.9331C6.80704 18.9973 6.87754 19.0294 6.95454 19.0294H18.639C18.716 19.0294 18.7865 18.9973 18.8505 18.9331C18.9147 18.8691 18.9468 18.7986 18.9468 18.7216V17.0851C18.9468 16.7889 19.052 16.5358 19.2623 16.3256C19.4725 16.1153 19.7256 16.0101 20.0218 16.0101C20.318 16.0101 20.5711 16.1153 20.7813 16.3256C20.9916 16.5358 21.0968 16.7889 21.0968 17.0851V18.7216C21.0968 19.4101 20.8593 19.9919 20.3843 20.4669C19.9093 20.9419 19.3275 21.1794 18.639 21.1794H6.95454ZM11.6968 8.69285L9.77379 10.6159C9.55829 10.8312 9.30671 10.9421 9.01904 10.9486C8.73121 10.9549 8.47638 10.8472 8.25454 10.6254C8.02638 10.4037 7.91388 10.1489 7.91704 9.8611C7.92021 9.57327 8.03271 9.31844 8.25454 9.0966L11.914 5.4371C12.041 5.3101 12.1731 5.2191 12.3103 5.1641C12.4475 5.10894 12.6013 5.08135 12.7718 5.08135C12.9423 5.08135 13.0961 5.10894 13.2333 5.1641C13.3705 5.2191 13.5025 5.3101 13.6295 5.4371L17.289 9.0966C17.5044 9.31194 17.6153 9.56102 17.6218 9.84385C17.6281 10.1265 17.5172 10.3787 17.289 10.6004C17.0672 10.8222 16.814 10.9315 16.5295 10.9284C16.2449 10.9252 15.9916 10.8127 15.7698 10.5909L13.8468 8.69285V15.7429C13.8468 16.039 13.7416 16.2922 13.5313 16.5024C13.3211 16.7127 13.068 16.8179 12.7718 16.8179C12.4756 16.8179 12.2225 16.7127 12.0123 16.5024C11.802 16.2922 11.6968 16.039 11.6968 15.7429V8.69285Z"
            fill="#FEFDFF" />
    </g>
</svg>